<mxfile host="Electron" agent="Mozilla/5.0 (Windows NT 10.0; Win64; x64) AppleWebKit/537.36 (KHTML, like Gecko) draw.io/26.0.9 Chrome/128.0.6613.186 Electron/32.2.5 Safari/537.36" version="26.0.9">
  <diagram id="C5RBs43oDa-KdzZeNtuy" name="Page-1">
    <mxGraphModel dx="1877" dy="621" grid="1" gridSize="10" guides="1" tooltips="1" connect="1" arrows="1" fold="1" page="1" pageScale="1" pageWidth="827" pageHeight="1169" math="0" shadow="0">
      <root>
        <mxCell id="WIyWlLk6GJQsqaUBKTNV-0" />
        <mxCell id="WIyWlLk6GJQsqaUBKTNV-1" parent="WIyWlLk6GJQsqaUBKTNV-0" />
        <mxCell id="8QMMxZMl8ROOKRNxFOiM-13" style="edgeStyle=orthogonalEdgeStyle;rounded=0;orthogonalLoop=1;jettySize=auto;html=1;exitX=0.5;exitY=1;exitDx=0;exitDy=0;entryX=0.5;entryY=0;entryDx=0;entryDy=0;fontFamily=JetBrains Mono;fontSize=12;" parent="WIyWlLk6GJQsqaUBKTNV-1" source="8QMMxZMl8ROOKRNxFOiM-0" target="8QMMxZMl8ROOKRNxFOiM-2" edge="1">
          <mxGeometry relative="1" as="geometry" />
        </mxCell>
        <mxCell id="8QMMxZMl8ROOKRNxFOiM-0" value="Голограмма" style="shape=parallelogram;perimeter=parallelogramPerimeter;whiteSpace=wrap;html=1;fixedSize=1;fontFamily=JetBrains Mono;fontSize=12;" parent="WIyWlLk6GJQsqaUBKTNV-1" vertex="1">
          <mxGeometry x="120" y="160" width="160" height="40" as="geometry" />
        </mxCell>
        <mxCell id="8QMMxZMl8ROOKRNxFOiM-16" style="edgeStyle=orthogonalEdgeStyle;rounded=0;orthogonalLoop=1;jettySize=auto;html=1;exitX=0.5;exitY=1;exitDx=0;exitDy=0;entryX=0.5;entryY=0;entryDx=0;entryDy=0;fontFamily=JetBrains Mono;fontSize=12;" parent="WIyWlLk6GJQsqaUBKTNV-1" source="8QMMxZMl8ROOKRNxFOiM-2" target="8QMMxZMl8ROOKRNxFOiM-4" edge="1">
          <mxGeometry relative="1" as="geometry" />
        </mxCell>
        <mxCell id="8QMMxZMl8ROOKRNxFOiM-2" value="Сжатие по дальности" style="rounded=1;whiteSpace=wrap;html=1;fontFamily=JetBrains Mono;fontSize=12;" parent="WIyWlLk6GJQsqaUBKTNV-1" vertex="1">
          <mxGeometry x="120" y="220" width="160" height="40" as="geometry" />
        </mxCell>
        <mxCell id="8QMMxZMl8ROOKRNxFOiM-25" style="edgeStyle=orthogonalEdgeStyle;rounded=0;orthogonalLoop=1;jettySize=auto;html=1;exitX=1;exitY=0.5;exitDx=0;exitDy=0;entryX=0;entryY=0.5;entryDx=0;entryDy=0;fontFamily=JetBrains Mono;fontSize=12;" parent="WIyWlLk6GJQsqaUBKTNV-1" source="8QMMxZMl8ROOKRNxFOiM-4" target="8QMMxZMl8ROOKRNxFOiM-5" edge="1">
          <mxGeometry relative="1" as="geometry" />
        </mxCell>
        <mxCell id="zvfhWfO0J79ISSD0uV5L-1" style="edgeStyle=orthogonalEdgeStyle;rounded=0;orthogonalLoop=1;jettySize=auto;html=1;exitX=0;exitY=0.5;exitDx=0;exitDy=0;" edge="1" parent="WIyWlLk6GJQsqaUBKTNV-1" source="8QMMxZMl8ROOKRNxFOiM-4" target="zvfhWfO0J79ISSD0uV5L-0">
          <mxGeometry relative="1" as="geometry" />
        </mxCell>
        <mxCell id="zvfhWfO0J79ISSD0uV5L-5" style="edgeStyle=orthogonalEdgeStyle;rounded=0;orthogonalLoop=1;jettySize=auto;html=1;exitX=0.5;exitY=1;exitDx=0;exitDy=0;entryX=0.5;entryY=0;entryDx=0;entryDy=0;" edge="1" parent="WIyWlLk6GJQsqaUBKTNV-1" source="8QMMxZMl8ROOKRNxFOiM-4" target="zvfhWfO0J79ISSD0uV5L-2">
          <mxGeometry relative="1" as="geometry" />
        </mxCell>
        <mxCell id="8QMMxZMl8ROOKRNxFOiM-4" value="Деление на две подапертуры A&lt;sub&gt;1&lt;/sub&gt;&amp;nbsp;и A&lt;sub&gt;2&lt;/sub&gt;&lt;sub&gt;&amp;nbsp;&lt;/sub&gt;" style="rounded=1;whiteSpace=wrap;html=1;fontFamily=JetBrains Mono;fontSize=12;" parent="WIyWlLk6GJQsqaUBKTNV-1" vertex="1">
          <mxGeometry x="120" y="280" width="160" height="50" as="geometry" />
        </mxCell>
        <mxCell id="zvfhWfO0J79ISSD0uV5L-4" style="edgeStyle=orthogonalEdgeStyle;rounded=0;orthogonalLoop=1;jettySize=auto;html=1;exitX=0.5;exitY=1;exitDx=0;exitDy=0;entryX=1;entryY=0.5;entryDx=0;entryDy=0;" edge="1" parent="WIyWlLk6GJQsqaUBKTNV-1" source="8QMMxZMl8ROOKRNxFOiM-5" target="zvfhWfO0J79ISSD0uV5L-2">
          <mxGeometry relative="1" as="geometry" />
        </mxCell>
        <mxCell id="8QMMxZMl8ROOKRNxFOiM-5" value="Синтез РЛИ&lt;span style=&quot;font-size: 10px;&quot;&gt;2&lt;/span&gt;" style="rounded=1;whiteSpace=wrap;html=1;fontFamily=JetBrains Mono;fontSize=12;" parent="WIyWlLk6GJQsqaUBKTNV-1" vertex="1">
          <mxGeometry x="320" y="285" width="160" height="40" as="geometry" />
        </mxCell>
        <mxCell id="8QMMxZMl8ROOKRNxFOiM-20" style="edgeStyle=orthogonalEdgeStyle;rounded=0;orthogonalLoop=1;jettySize=auto;html=1;exitX=0.5;exitY=1;exitDx=0;exitDy=0;entryX=0.5;entryY=0;entryDx=0;entryDy=0;fontFamily=JetBrains Mono;fontSize=12;" parent="WIyWlLk6GJQsqaUBKTNV-1" source="8QMMxZMl8ROOKRNxFOiM-8" target="8QMMxZMl8ROOKRNxFOiM-9" edge="1">
          <mxGeometry relative="1" as="geometry" />
        </mxCell>
        <mxCell id="8QMMxZMl8ROOKRNxFOiM-8" value="Усреднение корр. функции по всем каналам дальности" style="rounded=1;whiteSpace=wrap;html=1;fontFamily=JetBrains Mono;fontSize=12;" parent="WIyWlLk6GJQsqaUBKTNV-1" vertex="1">
          <mxGeometry x="120" y="420" width="160" height="60" as="geometry" />
        </mxCell>
        <mxCell id="8QMMxZMl8ROOKRNxFOiM-21" style="edgeStyle=orthogonalEdgeStyle;rounded=0;orthogonalLoop=1;jettySize=auto;html=1;exitX=0.5;exitY=1;exitDx=0;exitDy=0;entryX=0.5;entryY=0;entryDx=0;entryDy=0;fontFamily=JetBrains Mono;fontSize=12;" parent="WIyWlLk6GJQsqaUBKTNV-1" source="8QMMxZMl8ROOKRNxFOiM-9" target="8QMMxZMl8ROOKRNxFOiM-10" edge="1">
          <mxGeometry relative="1" as="geometry" />
        </mxCell>
        <mxCell id="8QMMxZMl8ROOKRNxFOiM-9" value="Поиск максимума и оценка коэффициента квадратичной&lt;div&gt;&lt;span style=&quot;background-color: transparent; color: light-dark(rgb(0, 0, 0), rgb(255, 255, 255));&quot;&gt;фазовой ошибки&lt;/span&gt;&lt;/div&gt;" style="rounded=1;whiteSpace=wrap;html=1;fontFamily=JetBrains Mono;fontSize=12;" parent="WIyWlLk6GJQsqaUBKTNV-1" vertex="1">
          <mxGeometry x="80" y="500" width="240" height="60" as="geometry" />
        </mxCell>
        <mxCell id="8QMMxZMl8ROOKRNxFOiM-23" style="edgeStyle=orthogonalEdgeStyle;rounded=0;orthogonalLoop=1;jettySize=auto;html=1;exitX=0.5;exitY=1;exitDx=0;exitDy=0;entryX=0.5;entryY=0;entryDx=0;entryDy=0;fontFamily=JetBrains Mono;fontSize=12;" parent="WIyWlLk6GJQsqaUBKTNV-1" source="8QMMxZMl8ROOKRNxFOiM-10" target="8QMMxZMl8ROOKRNxFOiM-12" edge="1">
          <mxGeometry relative="1" as="geometry" />
        </mxCell>
        <mxCell id="8QMMxZMl8ROOKRNxFOiM-24" value="Да" style="edgeLabel;html=1;align=center;verticalAlign=middle;resizable=0;points=[];fontFamily=JetBrains Mono;fontSize=12;" parent="8QMMxZMl8ROOKRNxFOiM-23" vertex="1" connectable="0">
          <mxGeometry x="-0.3" y="1" relative="1" as="geometry">
            <mxPoint x="9" as="offset" />
          </mxGeometry>
        </mxCell>
        <mxCell id="8QMMxZMl8ROOKRNxFOiM-29" style="edgeStyle=orthogonalEdgeStyle;rounded=0;orthogonalLoop=1;jettySize=auto;html=1;exitX=0;exitY=0.5;exitDx=0;exitDy=0;entryX=1;entryY=0.5;entryDx=0;entryDy=0;fontFamily=JetBrains Mono;fontSize=12;" parent="WIyWlLk6GJQsqaUBKTNV-1" source="8QMMxZMl8ROOKRNxFOiM-10" target="8QMMxZMl8ROOKRNxFOiM-11" edge="1">
          <mxGeometry relative="1" as="geometry" />
        </mxCell>
        <mxCell id="8QMMxZMl8ROOKRNxFOiM-31" value="Нет" style="edgeLabel;html=1;align=center;verticalAlign=middle;resizable=0;points=[];fontFamily=JetBrains Mono;fontSize=12;" parent="8QMMxZMl8ROOKRNxFOiM-29" vertex="1" connectable="0">
          <mxGeometry x="-0.075" y="1" relative="1" as="geometry">
            <mxPoint y="-11" as="offset" />
          </mxGeometry>
        </mxCell>
        <mxCell id="8QMMxZMl8ROOKRNxFOiM-10" value="Достигнута требуема величина ошибки?" style="rhombus;whiteSpace=wrap;html=1;fontFamily=JetBrains Mono;fontSize=12;" parent="WIyWlLk6GJQsqaUBKTNV-1" vertex="1">
          <mxGeometry x="100" y="580" width="200" height="100" as="geometry" />
        </mxCell>
        <mxCell id="zvfhWfO0J79ISSD0uV5L-7" style="edgeStyle=orthogonalEdgeStyle;rounded=0;orthogonalLoop=1;jettySize=auto;html=1;exitX=0.5;exitY=0;exitDx=0;exitDy=0;entryX=0.5;entryY=0;entryDx=0;entryDy=0;" edge="1" parent="WIyWlLk6GJQsqaUBKTNV-1" source="8QMMxZMl8ROOKRNxFOiM-11" target="zvfhWfO0J79ISSD0uV5L-0">
          <mxGeometry relative="1" as="geometry">
            <Array as="points">
              <mxPoint x="-40" y="440" />
              <mxPoint x="-100" y="440" />
              <mxPoint x="-100" y="270" />
              <mxPoint y="270" />
            </Array>
          </mxGeometry>
        </mxCell>
        <mxCell id="8QMMxZMl8ROOKRNxFOiM-11" value="Вычисление поправок к опорным функциям" style="rounded=1;whiteSpace=wrap;html=1;fontFamily=JetBrains Mono;fontSize=12;" parent="WIyWlLk6GJQsqaUBKTNV-1" vertex="1">
          <mxGeometry x="-120" y="610" width="160" height="40" as="geometry" />
        </mxCell>
        <mxCell id="8QMMxZMl8ROOKRNxFOiM-12" value="Сфокусированное РЛИ" style="shape=parallelogram;perimeter=parallelogramPerimeter;whiteSpace=wrap;html=1;fixedSize=1;fontFamily=JetBrains Mono;fontSize=12;" parent="WIyWlLk6GJQsqaUBKTNV-1" vertex="1">
          <mxGeometry x="100" y="720" width="200" height="40" as="geometry" />
        </mxCell>
        <mxCell id="zvfhWfO0J79ISSD0uV5L-3" style="edgeStyle=orthogonalEdgeStyle;rounded=0;orthogonalLoop=1;jettySize=auto;html=1;exitX=0.5;exitY=1;exitDx=0;exitDy=0;entryX=0;entryY=0.5;entryDx=0;entryDy=0;" edge="1" parent="WIyWlLk6GJQsqaUBKTNV-1" source="zvfhWfO0J79ISSD0uV5L-0" target="zvfhWfO0J79ISSD0uV5L-2">
          <mxGeometry relative="1" as="geometry" />
        </mxCell>
        <mxCell id="zvfhWfO0J79ISSD0uV5L-0" value="Синтез РЛИ&lt;sub&gt;1&lt;/sub&gt;" style="rounded=1;whiteSpace=wrap;html=1;fontFamily=JetBrains Mono;fontSize=12;" vertex="1" parent="WIyWlLk6GJQsqaUBKTNV-1">
          <mxGeometry x="-80" y="285" width="160" height="40" as="geometry" />
        </mxCell>
        <mxCell id="zvfhWfO0J79ISSD0uV5L-6" style="edgeStyle=orthogonalEdgeStyle;rounded=0;orthogonalLoop=1;jettySize=auto;html=1;exitX=0.5;exitY=1;exitDx=0;exitDy=0;entryX=0.5;entryY=0;entryDx=0;entryDy=0;" edge="1" parent="WIyWlLk6GJQsqaUBKTNV-1" source="zvfhWfO0J79ISSD0uV5L-2" target="8QMMxZMl8ROOKRNxFOiM-8">
          <mxGeometry relative="1" as="geometry" />
        </mxCell>
        <mxCell id="zvfhWfO0J79ISSD0uV5L-2" value="Расчёт корреляционной функции" style="rounded=1;whiteSpace=wrap;html=1;fontFamily=JetBrains Mono;fontSize=12;" vertex="1" parent="WIyWlLk6GJQsqaUBKTNV-1">
          <mxGeometry x="120" y="350" width="160" height="50" as="geometry" />
        </mxCell>
        <mxCell id="zvfhWfO0J79ISSD0uV5L-9" value="" style="endArrow=classic;html=1;rounded=0;entryX=0.5;entryY=0;entryDx=0;entryDy=0;" edge="1" parent="WIyWlLk6GJQsqaUBKTNV-1" target="8QMMxZMl8ROOKRNxFOiM-5">
          <mxGeometry width="50" height="50" relative="1" as="geometry">
            <mxPoint y="270" as="sourcePoint" />
            <mxPoint x="400" y="280" as="targetPoint" />
            <Array as="points">
              <mxPoint x="400" y="270" />
            </Array>
          </mxGeometry>
        </mxCell>
      </root>
    </mxGraphModel>
  </diagram>
</mxfile>
